# xmcd CD database file
#
# Track frame offsets:
#	150
#	17800
#	49935
#	75772
#	107947
#	123420
#	141597
#	160035
#	180502
#	199740
#	214695
#	230677
#	251110
#	274507
#
# Disc length: 3946 seconds
#
# Revision: 0
# Processed by: cddbd v1.5PL3 Copyright (c) Steve Scherf et al.
# Submitted via: CDex 1.50
#
DISCID=c20f680e
DTITLE=SION - Ain't Nothin' You I Can Do
DYEAR=1992
DGENRE=Rock
TTITLE0=俺の声
TTITLE1=コンクリート・リバー
TTITLE2=Sorry Baby
TTITLE3=街は今日も雨さ
TTITLE4=このままが
TTITLE5=12月
TTITLE6=ダーリン
TTITLE7=クロージング・タイム
TTITLE8=冬の街は
TTITLE9=Please Look At Me
TTITLE10=Machiko
TTITLE11=せかされる夜にあおられて
TTITLE12=夢を見るには
TTITLE13=最初の鳴き声が聞きたい
EXTD=YEAR: 1992
EXTT0=
EXTT1=
EXTT2=
EXTT3=
EXTT4=
EXTT5=
EXTT6=
EXTT7=
EXTT8=
EXTT9=
EXTT10=
EXTT11=
EXTT12=
EXTT13=
PLAYORDER=
